<?xml version="1.0" encoding="UTF-8"?>
<!DOCTYPE svg PUBLIC "-//W3C//DTD SVG 1.1//EN" "http://www.w3.org/Graphics/SVG/1.1/DTD/svg11.dtd">
<!-- Creator: CorelDRAW X7 -->
<svg xmlns="http://www.w3.org/2000/svg" xml:space="preserve" width="300px" height="300px" version="1.1" style="shape-rendering:geometricPrecision; text-rendering:geometricPrecision; image-rendering:optimizeQuality; fill-rule:evenodd; clip-rule:evenodd"
viewBox="0 0 300 300"
 xmlns:xlink="http://www.w3.org/1999/xlink">
 <defs>
  <style type="text/css">
   <![CDATA[
    .fil0 {fill:#FDB4DA}
   ]]>
  </style>
 </defs>
 <g id="Слой_x0020_1">
  <metadata id="CorelCorpID_0Corel-Layer"/>
  <path class="fil0" d="M150 0c83,0 150,67 150,150 0,83 -67,150 -150,150 -83,0 -150,-67 -150,-150 0,-83 67,-150 150,-150zm42 144c-2,-9 -6,-17 -12,-24 -7,-6 -15,-10 -24,-12 -4,0 -8,0 -12,0 -11,2 -20,8 -27,17 -7,9 -9,20 -8,31 2,11 8,20 17,27 7,5 15,8 24,8 2,0 4,0 6,0 11,-2 21,-8 28,-17 6,-9 9,-19 8,-30zm-38 32c-7,1 -14,-1 -19,-5 -6,-4 -10,-10 -11,-17 -1,-7 1,-15 5,-20 4,-6 10,-10 17,-11 2,0 3,0 4,0 2,0 3,0 4,0 12,2 21,11 23,23 2,14 -8,28 -23,30zm48 -78c-1,-2 -3,-2 -5,-2 -2,0 -4,0 -5,2 -2,1 -3,3 -3,5 0,2 1,4 3,5 1,2 3,3 5,3 2,0 4,-1 5,-3 2,-1 2,-3 2,-5 0,-2 0,-4 -2,-5zm-9 -41l-86 0c-27,0 -50,23 -50,50l0 86c0,27 23,50 50,50l86 0c27,0 50,-23 50,-50l0 -86c0,-27 -23,-50 -50,-50zm35 136c0,19 -16,35 -35,35l-86 0c-19,0 -35,-16 -35,-35l0 -86c0,-19 16,-35 35,-35l86 0c19,0 35,16 35,35l0 86z"/>
 </g>
</svg>
