<?xml version="1.0" encoding="UTF-8"?>
<!DOCTYPE svg PUBLIC "-//W3C//DTD SVG 1.1//EN" "http://www.w3.org/Graphics/SVG/1.1/DTD/svg11.dtd">
<!-- Creator: CorelDRAW X7 -->
<svg xmlns="http://www.w3.org/2000/svg" xml:space="preserve" width="300px" height="300px" version="1.1" style="shape-rendering:geometricPrecision; text-rendering:geometricPrecision; image-rendering:optimizeQuality; fill-rule:evenodd; clip-rule:evenodd"
viewBox="0 0 300 300"
 xmlns:xlink="http://www.w3.org/1999/xlink">
 <defs>
  <style type="text/css">
   <![CDATA[
    .fil0 {fill:#FDB4DA}
   ]]>
  </style>
 </defs>
 <g id="Слой_x0020_1">
  <metadata id="CorelCorpID_0Corel-Layer"/>
  <path id="XMLID_11_" class="fil0" d="M300 150c0,-83 -67,-150 -150,-150 -83,0 -150,67 -150,150 0,83 67,150 150,150 83,0 150,-67 150,-150zm-156 66l12 0c0,0 4,-1 5,-3 2,-1 2,-5 2,-5 0,0 0,-16 7,-18 7,-2 17,15 27,22 7,5 13,4 13,4l26 0c0,0 14,-1 7,-12 0,-1 -4,-8 -19,-23 -17,-15 -15,-12 5,-39 12,-16 17,-26 16,-30 -2,-4 -11,-3 -11,-3l-29 0c0,0 -3,0 -4,1 -2,1 -3,3 -3,3 0,0 -4,13 -11,23 -13,23 -18,24 -20,22 -5,-3 -4,-13 -4,-20 0,-21 3,-30 -6,-33 -4,0 -6,-1 -14,-1 -11,0 -20,0 -25,2 -3,2 -6,6 -4,6 2,0 6,1 8,4 3,4 3,14 3,14 0,0 2,25 -4,28 -4,3 -9,-2 -21,-22 -6,-11 -10,-22 -10,-22 0,0 -1,-2 -3,-3 -2,-2 -4,-2 -4,-2l-29 0c0,0 -4,0 -5,2 -2,2 0,5 0,5 0,0 22,52 46,78 23,23 49,22 49,22l0 0z"/>
 </g>
</svg>
