<svg width="41px" height="29px" viewBox="0 0 410 293" version="1.1" xmlns="http://www.w3.org/2000/svg">
<g id="#e5537fff">
<path fill="#e5537f" opacity="1.00" d=" M 8.02 142.21 C 54.08 96.14 100.15 50.08 146.22 4.01 C 153.14 10.91 160.05 17.82 166.95 24.74 C 132.72 58.99 98.46 93.20 64.23 127.46 C 179.49 127.48 294.74 127.46 410.00 127.47 L 410.00 166.53 C 294.75 166.54 179.49 166.52 64.24 166.54 C 98.46 200.80 132.72 235.01 166.95 269.26 C 160.05 276.18 153.14 283.08 146.22 289.98 C 100.15 243.92 54.08 197.86 8.02 151.79 C 9.61 150.19 11.20 148.59 12.79 147.00 C 11.20 145.40 9.61 143.81 8.02 142.21 Z" />
</g>
</svg>