<svg width="41px" height="29px" viewBox="0 0 410 293" version="1.1" xmlns="http://www.w3.org/2000/svg">
<g id="#e5537fff">
<path fill="#e5537f" opacity="1.00" d=" M 243.05 24.74 C 249.99 17.84 256.82 10.85 263.83 4.04 C 309.86 50.12 355.94 96.14 401.98 142.22 C 400.38 143.81 398.80 145.41 397.21 147.00 C 398.80 148.59 400.38 150.19 401.98 151.78 C 355.92 197.86 309.85 243.92 263.78 289.98 C 256.86 283.08 249.95 276.18 243.05 269.26 C 277.28 235.01 311.54 200.80 345.75 166.54 C 230.50 166.52 115.25 166.54 0.00 166.53 L 0.00 127.47 C 115.25 127.46 230.50 127.48 345.75 127.46 C 311.54 93.19 277.28 58.99 243.05 24.74 Z" />
</g>
</svg>