<?xml version="1.0" encoding="UTF-8"?>
<!DOCTYPE svg PUBLIC "-//W3C//DTD SVG 1.1//EN" "http://www.w3.org/Graphics/SVG/1.1/DTD/svg11.dtd">
<!-- Creator: CorelDRAW X7 -->
<svg xmlns="http://www.w3.org/2000/svg" xml:space="preserve" width="300px" height="300px" version="1.1" style="shape-rendering:geometricPrecision; text-rendering:geometricPrecision; image-rendering:optimizeQuality; fill-rule:evenodd; clip-rule:evenodd"
viewBox="0 0 300 300"
 xmlns:xlink="http://www.w3.org/1999/xlink">
 <defs>
  <style type="text/css">
   <![CDATA[
    .fil0 {fill:#FDB4DA}
   ]]>
  </style>
 </defs>
 <g id="Слой_x0020_1">
  <metadata id="CorelCorpID_0Corel-Layer"/>
  <path class="fil0" d="M150 0c83,0 150,67 150,150 0,83 -67,150 -150,150 -83,0 -150,-67 -150,-150 0,-83 67,-150 150,-150zm57 196l-11 0 0 -7c0,-2 2,-5 5,-5l1 0c3,0 5,3 5,5l0 7zm-41 -14c-2,0 -5,2 -5,4l0 31c0,2 3,4 5,4 3,0 5,-2 5,-4l0 -31c0,-2 -2,-4 -5,-4zm66 -17l0 58c0,14 -12,26 -27,26l-110 0c-15,0 -27,-12 -27,-26l0 -58c0,-14 12,-25 27,-25l110 0c15,0 27,11 27,25zm-130 65l0 -62 14 0 0 -9 -37 0 0 9 12 0 0 62 11 0zm41 -53l-11 0 0 33c0,5 0,7 0,8 -1,3 -5,5 -7,0 0,0 0,-3 0,-8l0 -33 -11 0 0 33c0,5 -1,9 0,10 0,3 0,7 3,9 5,3 15,-1 17,-6l0 7 9 0 0 -53 0 0zm37 38l0 -27c0,-11 -8,-17 -19,-9l0 -20 -11 0 0 70 9 0 1 -4c12,11 20,3 20,-10zm36 -4l-9 0c0,1 0,1 0,2l0 4c0,3 -2,5 -5,5l-1 0c-3,0 -5,-2 -5,-5l0 0 0 -5 0 -7 20 0 0 -8c0,-5 -1,-10 -1,-14 -1,-9 -15,-11 -22,-6 -2,2 -4,4 -5,7 -1,2 -1,6 -1,11l0 16c0,27 33,24 29,0zm-44 -88c0,2 1,3 2,4 2,0 3,1 5,1 2,0 3,-1 4,-2 2,0 3,-2 4,-4l-1 5 13 0 0 -54 -10 0 0 42c0,2 -2,4 -4,4 -2,0 -4,-2 -4,-4l0 -42 -11 0 0 36c0,5 0,8 0,10 1,1 1,3 2,4zm-39 -31c0,-5 0,-9 1,-12 1,-3 3,-5 5,-7 2,-2 5,-2 9,-2 3,0 5,0 7,1 2,1 4,3 5,5 1,2 2,3 2,5 1,2 1,5 1,9l0 14c0,5 0,9 -1,11 0,2 -1,5 -2,7 -1,2 -3,3 -5,4 -2,1 -4,2 -7,2 -3,0 -5,-1 -7,-2 -2,0 -4,-2 -5,-3 -1,-2 -2,-4 -2,-7 -1,-2 -1,-5 -1,-10l0 -15 0 0zm10 22c0,3 2,6 5,6 3,0 5,-3 5,-6l0 -29c0,-3 -2,-5 -5,-5 -3,0 -5,2 -5,5l0 29zm-35 15l12 0 0 -42 14 -36 -13 0 -8 27 -8 -27 -13 0 16 36 0 42z"/>
 </g>
</svg>
